<svg xmlns:xlink="http://www.w3.org/1999/xlink" xmlns="http://www.w3.org/2000/svg" viewBox="0 0 24 24" width="256" height="256"><path fill="#4285F4" d="M22 2.75H2c-1.104 0-2 .888-2 1.982v14.536c0 1.094.896 1.982 2 1.982h20c1.104 0 2-.888 2-1.982V4.732a1.992 1.992 0 0 0-2-1.982zM3.013 14.7c-.509 0-1.067-.1-1.617-.335v-1.4c.5.264 1.129.467 1.62.467.329 0 .566-.087.566-.359 0-.702-2.25-.438-2.25-2.061 0-1.04.8-1.66 2-1.66.492 0 .98.075 1.471.269v1.38a3.349 3.349 0 0 0-1.471-.376c-.312 0-.504.091-.504.318 0 .661 2.262.347 2.262 2.094l.001-.001c.002 1.057-.844 1.656-2.078 1.664zm4.945-4.001H6.833v2.085c0 .863.938.595 1.125.521v1.194c-.196.107-.554.194-1.037.194-.879 0-1.538-.64-1.538-1.507l.008-4.703 1.446-.306v1.272h1.121v1.25zm3.084.099c-.188-.062-.779-.149-1.129.306v3.485H8.434V9.448h1.279l.092.433c.346-.632 1.037-.504 1.233-.433h.004v1.35zm1.837 3.791h-1.487V9.448h1.487v5.141zm0-5.901-1.487.314V7.808l1.487-.314v1.194zm3.089 6.009c-.517 0-.834-.219-1.046-.372l-.005 1.66-1.479.31V9.448h1.304l.075.363a1.677 1.677 0 0 1 1.158-.458c1.037 0 2.017.929 2.017 2.635h.001c0 1.862-.966 2.704-2.025 2.709zm6.682-2.129h-2.896c.067.685.575.888 1.15.888a3.14 3.14 0 0 0 1.454-.326v1.181c-.404.219-.933.38-1.642.38-1.442 0-2.45-.896-2.45-2.663 0-1.495.854-2.68 2.262-2.68 1.404 0 2.138 1.186 2.138 2.688.001.146-.012.45-.016.532z" class="color646FDF svgShape"></path><path fill="#4285F4" d="M15.625 10.654c-.341 0-.555.12-.708.289l.008 2.18c.147.152.354.277.7.277.547 0 .913-.591.913-1.379 0-.768-.375-1.372-.913-1.367zm4.891-.107c-.371 0-.779.277-.779.937h1.529c0-.661-.388-.937-.75-.937zM20.516 10.546v.001-.001z" class="color646FDF svgShape"></path></svg>