<svg width="31" height="19" viewBox="0 0 31 19" fill="none" xmlns="http://www.w3.org/2000/svg">
<rect x="0.151367" width="30.2578" height="19" rx="2" fill="#142FC9"/>
<path d="M17.1427 7.12741C15.9833 7.26455 15.198 7.98944 15.2452 8.88086C15.2722 9.45555 15.6025 9.81799 16.4855 10.2621C16.6877 10.3633 16.9068 10.5037 16.9978 10.5886C17.1461 10.7257 17.1596 10.7486 17.1596 10.8923C17.1596 11.0327 17.1427 11.0653 17.0315 11.1731C16.8697 11.3298 16.6304 11.4016 16.2631 11.4016C15.8991 11.4016 15.5385 11.3331 15.1879 11.1959L14.9048 11.0849L14.888 11.1698C14.8779 11.2155 14.8239 11.4604 14.7666 11.7086C14.7127 11.96 14.6655 12.182 14.6655 12.2016C14.6655 12.2474 15.0666 12.3682 15.4508 12.4367C15.8182 12.502 16.5934 12.502 16.927 12.4367C17.8741 12.2506 18.4471 11.7608 18.6021 11C18.6965 10.5266 18.5718 10.1315 18.2179 9.79187C18.046 9.62861 17.8404 9.498 17.227 9.1682C16.8664 8.97229 16.6877 8.80249 16.6877 8.64903C16.6877 8.21148 17.5674 8.05801 18.4066 8.35189C18.528 8.39434 18.6324 8.41719 18.6459 8.40413C18.6661 8.38127 18.8785 7.42782 18.8785 7.35925C18.8785 7.32333 18.5684 7.22537 18.255 7.16006C17.9921 7.11108 17.4393 7.09149 17.1427 7.12741Z" fill="white"/>
<path d="M6.33037 7.26128C6.31689 7.30047 6.31352 7.33639 6.31689 7.33965C6.32026 7.33965 6.51574 7.39516 6.75167 7.46047C7.30104 7.61067 7.67178 7.76087 7.8167 7.89148C7.95489 8.0123 7.95826 8.01883 8.6357 10.5755L9.12103 12.4139H9.86251H10.604L11.7061 9.85717C12.3128 8.45311 12.8183 7.27761 12.8318 7.24496C12.852 7.19271 12.8082 7.18945 12.1207 7.19598L11.3893 7.20577L10.6781 8.95922C10.2838 9.92248 9.95351 10.6996 9.9434 10.6898C9.93329 10.6768 9.79173 9.98452 9.62996 9.14861C9.29629 7.42781 9.29292 7.41802 8.99633 7.27435L8.82107 7.18945H7.58415H6.34722L6.33037 7.26128Z" fill="white"/>
<path d="M13.453 7.20577C13.453 7.22537 12.3475 12.2278 12.3171 12.342L12.3003 12.4139L13.0013 12.4073L13.7024 12.3976L14.2686 9.85064C14.5787 8.44984 14.8314 7.27761 14.8348 7.24496C14.8348 7.19271 14.7809 7.18945 14.1439 7.18945C13.763 7.18945 13.453 7.19598 13.453 7.20577Z" fill="white"/>
<path d="M21.042 7.22533C20.769 7.3037 20.7589 7.32329 19.6433 9.90938C19.0737 11.2351 18.5951 12.342 18.585 12.3681C18.5681 12.4073 18.6659 12.4138 19.2995 12.4073L20.0342 12.3975L20.1724 12.022L20.3106 11.6465L21.2071 11.6367L22.1036 11.6302L22.1879 12.0122L22.2688 12.3975L22.9193 12.4073C23.5259 12.4138 23.5664 12.4106 23.5495 12.3583C23.5428 12.3257 23.2866 11.1502 22.9867 9.74286L22.4373 7.18941L21.7936 7.19268C21.443 7.19268 21.1026 7.20901 21.042 7.22533ZM21.3116 10.5461C21.0049 10.5494 20.7487 10.5494 20.742 10.5428C20.7353 10.5363 20.8768 10.1412 21.0554 9.66775C21.2341 9.19429 21.3959 8.76327 21.4161 8.70776C21.4464 8.62287 21.4767 8.72083 21.6587 9.57306L21.8677 10.5363L21.3116 10.5461Z" fill="white"/>
</svg>
