<svg width="15" height="19" viewBox="0 0 15 19" fill="none" xmlns="http://www.w3.org/2000/svg">
<path id="Vector" d="M8.42578 18.525C10.4297 16.1426 15 10.3684 15 7.125C15 3.19141 11.6406 0 7.5 0C3.35938 0 0 3.19141 0 7.125C0 10.3684 4.57031 16.1426 6.57422 18.525C7.05469 19.0928 7.94531 19.0928 8.42578 18.525ZM7.5 4.75C8.16304 4.75 8.79893 5.00022 9.26777 5.44562C9.73661 5.89102 10 6.49511 10 7.125C10 7.75489 9.73661 8.35898 9.26777 8.80438C8.79893 9.24978 8.16304 9.5 7.5 9.5C6.83696 9.5 6.20107 9.24978 5.73223 8.80438C5.26339 8.35898 5 7.75489 5 7.125C5 6.49511 5.26339 5.89102 5.73223 5.44562C6.20107 5.00022 6.83696 4.75 7.5 4.75Z" fill="black"/>
</svg>
