<svg width="22" height="18" viewBox="0 0 22 18" fill="none" xmlns="http://www.w3.org/2000/svg">
<path d="M2.44444 0C1.09618 0 0 1.15313 0 2.57143V3.85714H22V2.57143C22 1.15313 20.9038 0 19.5556 0H2.44444ZM22 7.71429H0V15.4286C0 16.8469 1.09618 18 2.44444 18H19.5556C20.9038 18 22 16.8469 22 15.4286V7.71429ZM4.27778 12.8571H6.72222C7.05833 12.8571 7.33333 13.1464 7.33333 13.5C7.33333 13.8536 7.05833 14.1429 6.72222 14.1429H4.27778C3.94167 14.1429 3.66667 13.8536 3.66667 13.5C3.66667 13.1464 3.94167 12.8571 4.27778 12.8571ZM8.55556 13.5C8.55556 13.1464 8.83056 12.8571 9.16667 12.8571H14.0556C14.3917 12.8571 14.6667 13.1464 14.6667 13.5C14.6667 13.8536 14.3917 14.1429 14.0556 14.1429H9.16667C8.83056 14.1429 8.55556 13.8536 8.55556 13.5Z" fill="black"/>
</svg>
