<svg width="23" height="17" viewBox="0 0 23 17" fill="none" xmlns="http://www.w3.org/2000/svg">
<path id="Vector" d="M1.69107 0.337793C1.80375 0.104702 2.05166 -0.0290387 2.30332 0.00535181L11.4984 1.17463L20.6935 0.00535181C20.9451 -0.0252175 21.1931 0.108523 21.3057 0.337793L22.8721 3.52465C23.2101 4.20864 22.8495 5.03783 22.1283 5.24799L15.9908 7.03248C15.4687 7.18533 14.909 6.95988 14.631 6.48605L11.4984 1.17463L8.36576 6.48605C8.08781 6.95988 7.52814 7.18533 7.00603 7.03248L0.872224 5.24799C0.147285 5.03783 -0.20955 4.20864 0.128504 3.52465L1.69107 0.337793ZM11.5397 3.62018L13.6019 7.11272C14.1615 8.06037 15.2771 8.51127 16.3251 8.20558L21.1142 6.81467V13.196C21.1142 14.0367 20.5507 14.7703 19.7469 14.9767L12.0806 16.9255C11.6975 17.0248 11.2956 17.0248 10.9162 16.9255L3.24987 14.9767C2.44606 14.7665 1.88263 14.0329 1.88263 13.1922V6.81085L6.67549 8.20558C7.7197 8.51127 8.83904 8.06037 9.39871 7.11272L11.4571 3.62018H11.5397Z" fill="black"/>
</svg>
